<svg width="56" height="56" viewBox="0 0 56 56" fill="none" xmlns="http://www.w3.org/2000/svg">
<circle cx="28" cy="28" r="28" fill="url(#paint0_linear_36_451)"/>
<g clip-path="url(#clip0_36_451)">
<path d="M17.5136 24.1023C17.2046 24.1023 16.9541 23.8517 16.9541 23.5427V13.0629C16.9541 12.4949 17.7081 12.2892 17.9961 12.7797C18.6943 13.9692 19.7729 14.8408 21.1063 15.2203C21.4035 15.3048 21.5759 15.6143 21.4914 15.9115C21.4069 16.2088 21.0975 16.3817 20.8002 16.2966C19.7967 16.0113 18.8635 15.4836 18.0731 14.6951V23.5428C18.0731 23.8517 17.8226 24.1023 17.5136 24.1023Z" fill="#1A5B35"/>
<path d="M15.0238 20.5046C16.6939 20.5046 18.0473 21.858 18.0473 23.5274C18.0473 25.1969 16.6939 26.5503 15.0245 26.5503C13.3543 26.5503 12.001 25.1969 12.001 23.5274C12.001 21.858 13.3543 20.5046 15.0238 20.5046Z" fill="#1A5B35"/>
<path d="M44.4406 19.1148V22.9818L26.6311 25.7214C26.592 25.7214 26.6059 26.0081 26.6059 21.9943C26.6059 21.1662 27.2102 20.4612 28.0292 20.3353L43.1517 18.0091C43.8294 17.9049 44.4406 18.4294 44.4406 19.1148V19.1148Z" fill="#1A5B35"/>
<path d="M26.6059 38.7896C26.2969 38.7896 26.0464 38.5391 26.0464 38.2301V21.9942C26.0464 20.8816 26.8443 19.9512 27.944 19.7821L43.0664 17.4559C44.0807 17.2997 45.0001 18.085 45.0001 19.1148V35.5024C45.0001 35.8114 44.7496 36.062 44.4406 36.062C44.1316 36.062 43.8811 35.8114 43.8811 35.5024V19.1148C43.8811 18.7676 43.5713 18.51 43.2367 18.5621L28.1142 20.8883C27.5644 20.9728 27.1654 21.4379 27.1654 21.9942V38.2301C27.1654 38.5391 26.9149 38.7896 26.6059 38.7896V38.7896Z" fill="#1A5B35"/>
<path d="M15.6571 22.1776C14.7279 22.4796 13.9749 23.2305 13.6728 24.1606C13.4047 24.9863 12.204 24.9235 12.0494 24.0692C11.675 22.0008 13.4863 20.175 15.5684 20.5535C16.4235 20.709 16.4836 21.909 15.6571 22.1776V22.1776Z" fill="#076D32"/>
<path d="M40.7211 39.7576C43.0843 39.7576 45 37.8418 45 35.4786C45 33.1154 43.0843 31.1997 40.7211 31.1997C38.3579 31.1997 36.4421 33.1154 36.4421 35.4786C36.4421 37.8418 38.3579 39.7576 40.7211 39.7576Z" fill="#1A5B35"/>
<path d="M22.8989 42.4965C25.2551 42.4965 27.1652 40.5864 27.1652 38.2302C27.1652 35.874 25.2551 33.9639 22.8989 33.9639C20.5427 33.9639 18.6326 35.874 18.6326 38.2302C18.6326 40.5864 20.5427 42.4965 22.8989 42.4965Z" fill="#1A5B35"/>
<path d="M26.0464 25.7214V21.9942C26.0464 20.8815 26.8445 19.9514 27.944 19.7821L43.0664 17.4559C44.0801 17.3009 45.0001 18.0831 45.0001 19.1148C45.0001 19.9429 44.3959 20.6471 43.5775 20.773L31.3723 22.6504C30.3583 22.8063 29.5463 23.5081 29.2169 24.4289C29.0088 25.0107 28.5015 25.4335 27.8908 25.5273C26.9241 25.6759 27.431 25.616 26.0464 25.7214V25.7214Z" fill="#076D32"/>
<path d="M41.1392 33.6406C40.1374 34.0813 39.3178 34.8984 38.8771 35.9002C38.3151 37.1777 36.3974 36.7246 36.4447 35.3298C36.5197 33.1201 38.2949 31.3212 40.4898 31.2058C42.0107 31.1258 42.4091 33.0818 41.1392 33.6406V33.6406Z" fill="#076D32"/>
<path d="M23.3176 36.406C22.3211 36.8449 21.5059 37.6569 21.067 38.6534C20.5048 39.93 18.5881 39.4768 18.6351 38.0826C18.7095 35.879 20.48 34.0848 22.6691 33.9699C24.1905 33.89 24.5881 35.8463 23.3176 36.406V36.406Z" fill="#076D32"/>
</g>
<defs>
<linearGradient id="paint0_linear_36_451" x1="28" y1="0" x2="28" y2="56" gradientUnits="userSpaceOnUse">
<stop stop-color="#CDAF74"/>
<stop offset="1" stop-color="#DBC48D"/>
</linearGradient>
<clipPath id="clip0_36_451">
<rect width="33" height="33" fill="white" transform="translate(12 11)"/>
</clipPath>
</defs>
</svg>
