<svg width="254" height="80" viewBox="0 0 254 80" fill="none" xmlns="http://www.w3.org/2000/svg">
<path d="M35.7601 32.936C35.7601 42.344 34.3201 50.552 31.4401 57.56C28.3681 65.144 24.4321 68.936 19.6321 68.936C18.8641 68.936 18.1201 68.84 17.4001 68.648V69.656C17.4001 70.712 17.3761 71.336 17.3281 71.528C17.2321 72.008 16.9201 72.248 16.3921 72.248C15.8641 72.248 15.5521 71.96 15.4561 71.384C15.3601 71.096 15.3361 70.28 15.3841 68.936V67.928C13.8481 67.112 12.6481 65.864 11.7841 64.184C11.1121 62.792 10.7761 61.352 10.7761 59.864C10.7761 59.336 10.9441 59.072 11.2801 59.072C11.5201 59.072 11.6401 59.312 11.6401 59.792C11.6401 62.24 12.8881 64.28 15.3841 65.912C15.7681 52.76 15.9601 45.104 15.9601 42.944C15.9601 33.488 15.7921 25.28 15.4561 18.32C15.3121 15.2 15.1681 12.104 15.0241 9.032V7.52C15.0241 5.6 15.4321 4.64 16.2481 4.64C17.6401 4.64 18.3361 6.008 18.3361 8.744C18.3361 7.976 18.2401 11.216 18.0481 18.464C17.8081 25.424 17.6881 33.536 17.6881 42.8V50.864C17.6881 51.632 17.5921 56.96 17.4001 66.848C18.1681 67.04 18.9601 67.136 19.7761 67.136C23.5201 67.136 26.6641 63.368 29.2081 55.832C31.5601 48.776 32.7361 40.664 32.7361 31.496C32.7361 21.56 31.2961 13.976 28.4161 8.744C25.9201 4.184 22.7041 1.904 18.7681 1.904C14.6401 1.904 10.9441 4.184 7.68013 8.744C4.27213 13.592 2.56813 19.448 2.56813 26.312C2.56813 29.192 3.00013 31.568 3.86413 33.44C4.77613 35.312 6.02413 36.248 7.60813 36.248C8.80813 36.248 9.81613 35.312 10.6321 33.44C11.4481 31.568 11.8561 29.336 11.8561 26.744C11.8561 24.392 11.5681 22.328 10.9921 20.552C10.4161 18.776 10.1281 18.056 10.1281 18.392C10.1281 17.96 10.3201 17.744 10.7041 17.744C11.1361 17.744 11.7121 18.464 12.4321 19.904C13.3921 21.872 13.8721 24.296 13.8721 27.176C13.8721 30.392 13.1761 32.936 11.7841 34.808C10.5841 36.392 9.16813 37.184 7.53613 37.184C5.18413 37.184 3.33613 36.008 1.99213 33.656C0.696125 31.448 0.0481251 28.616 0.0481251 25.16C0.0481251 18.2 1.96813 12.344 5.80813 7.592C9.45613 3.08 13.6321 0.823998 18.3361 0.823998C23.1841 0.823998 27.1681 3.296 30.2881 8.24C33.9361 14 35.7601 22.232 35.7601 32.936ZM58.3378 49.136C58.3378 51.152 57.5698 53.12 56.0338 55.04C54.4018 57.152 52.6258 58.208 50.7058 58.208C50.3218 58.208 49.9378 58.16 49.5538 58.064C48.4018 59.12 47.0818 59.648 45.5938 59.648C43.5298 59.648 41.8258 58.496 40.4818 56.192C39.1378 53.84 38.4658 50.72 38.4658 46.832C38.4658 43.28 39.1858 40.256 40.6258 37.76C42.0658 35.264 43.8178 34.016 45.8818 34.016C47.9458 34.016 49.6978 35.264 51.1378 37.76C52.5778 40.256 53.2978 43.28 53.2978 46.832C53.2978 50.576 52.5058 53.72 50.9218 56.264C53.7058 56.216 55.7938 53.864 57.1858 49.208C57.3298 48.728 57.5698 48.488 57.9058 48.488C58.1938 48.488 58.3378 48.704 58.3378 49.136ZM51.2818 45.968C51.2818 43.568 50.9218 41.336 50.2018 39.272C48.8578 39.512 47.6338 40.208 46.5298 41.36C45.0418 42.944 44.2978 45.032 44.2978 47.624C44.2978 49.448 44.7298 51.176 45.5938 52.808C46.5058 54.392 47.6338 55.448 48.9778 55.976C50.5138 53.288 51.2818 49.952 51.2818 45.968ZM49.8418 38.264C48.9778 36.248 47.8258 35.24 46.3858 35.24C44.5138 35.24 43.0258 36.824 41.9218 39.992C41.0578 42.488 40.6258 45.104 40.6258 47.84C40.6258 50.288 40.9858 52.544 41.7058 54.608C42.6178 57.248 43.8898 58.568 45.5218 58.568C46.3858 58.568 47.2018 58.184 47.9698 57.416C46.5778 56.6 45.4018 55.328 44.4418 53.6C43.5298 51.872 43.0738 50 43.0738 47.984C43.0738 45.152 43.8658 42.824 45.4498 41C46.7458 39.416 48.2098 38.504 49.8418 38.264ZM74.315 48.272C73.835 50.528 73.331 52.184 72.803 53.24C71.651 55.448 69.923 56.552 67.619 56.552C66.515 56.552 65.459 56.216 64.451 55.544C63.683 55.976 62.891 56.192 62.075 56.192C60.683 56.192 59.531 55.568 58.619 54.32V55.904C58.571 60.272 58.595 63.872 58.691 66.704C58.787 69.824 58.835 71.648 58.835 72.176C58.835 73.28 58.499 73.832 57.827 73.832C57.155 73.832 56.819 73.304 56.819 72.248C56.819 71.96 56.915 70.208 57.107 66.992C57.251 64.016 57.299 60.248 57.251 55.688V34.736C57.251 34.592 57.251 34.4 57.251 34.16C57.251 33.92 57.251 33.752 57.251 33.656C57.251 32.264 57.635 31.568 58.403 31.568C59.171 31.568 59.555 31.952 59.555 32.72C59.555 32.912 59.531 33.2 59.483 33.584C59.435 33.968 59.411 34.232 59.411 34.376C59.411 34.52 59.411 34.712 59.411 34.952C60.611 32.696 62.123 31.568 63.947 31.568C65.387 31.568 66.635 32.6 67.691 34.664C68.843 36.92 69.419 39.752 69.419 43.16C69.419 48.344 68.147 52.16 65.603 54.608C66.179 55.04 66.875 55.256 67.691 55.256C70.235 55.256 71.963 53.288 72.875 49.352C73.115 48.152 73.379 47.552 73.667 47.552C74.195 47.552 74.411 47.792 74.315 48.272ZM67.331 43.664C67.331 41.024 66.923 38.768 66.107 36.896C65.291 34.976 64.211 34.016 62.867 34.016C61.859 34.016 60.971 34.616 60.203 35.816C59.435 37.016 59.051 38.552 59.051 40.424C59.051 46.52 60.827 50.984 64.379 53.816C66.347 51.704 67.331 48.32 67.331 43.664ZM63.227 54.68C61.211 53 59.723 50.528 58.763 47.264C58.763 47.6 58.739 48.776 58.691 50.792C59.363 53.48 60.587 54.824 62.363 54.824C62.651 54.824 62.939 54.776 63.227 54.68ZM92.2987 49.136C92.2987 51.152 91.5307 53.12 89.9947 55.04C88.3627 57.152 86.5867 58.208 84.6667 58.208C84.2827 58.208 83.8987 58.16 83.5147 58.064C82.3627 59.12 81.0427 59.648 79.5547 59.648C77.4907 59.648 75.7867 58.496 74.4427 56.192C73.0987 53.84 72.4267 50.72 72.4267 46.832C72.4267 43.28 73.1467 40.256 74.5867 37.76C76.0267 35.264 77.7787 34.016 79.8427 34.016C81.9067 34.016 83.6587 35.264 85.0987 37.76C86.5387 40.256 87.2587 43.28 87.2587 46.832C87.2587 50.576 86.4667 53.72 84.8827 56.264C87.6667 56.216 89.7547 53.864 91.1467 49.208C91.2907 48.728 91.5307 48.488 91.8667 48.488C92.1547 48.488 92.2987 48.704 92.2987 49.136ZM85.2427 45.968C85.2427 43.568 84.8827 41.336 84.1627 39.272C82.8187 39.512 81.5947 40.208 80.4907 41.36C79.0027 42.944 78.2587 45.032 78.2587 47.624C78.2587 49.448 78.6907 51.176 79.5547 52.808C80.4667 54.392 81.5947 55.448 82.9387 55.976C84.4747 53.288 85.2427 49.952 85.2427 45.968ZM83.8027 38.264C82.9387 36.248 81.7867 35.24 80.3467 35.24C78.4747 35.24 76.9867 36.824 75.8827 39.992C75.0187 42.488 74.5867 45.104 74.5867 47.84C74.5867 50.288 74.9467 52.544 75.6667 54.608C76.5787 57.248 77.8507 58.568 79.4827 58.568C80.3467 58.568 81.1627 58.184 81.9307 57.416C80.5387 56.6 79.3627 55.328 78.4027 53.6C77.4907 51.872 77.0347 50 77.0347 47.984C77.0347 45.152 77.8267 42.824 79.4107 41C80.7067 39.416 82.1707 38.504 83.8027 38.264ZM91.1399 50.576C92.0039 44.336 92.9399 39.752 93.9479 36.824C95.0039 33.848 96.5159 32.408 98.4839 32.504C99.6839 32.6 100.572 32.936 101.148 33.512C101.724 34.088 102.06 34.832 102.156 35.744C102.252 36.656 102.18 37.64 101.94 38.696C101.7 39.752 101.34 40.784 100.86 41.792C100.14 43.376 99.5159 44.96 98.9879 46.544C98.4599 48.128 98.1239 49.592 97.9799 50.936C97.8359 52.28 97.9079 53.456 98.1959 54.464C98.5319 55.424 99.1799 56.072 100.14 56.408C100.668 56.456 101.22 56.384 101.796 56.192C102.42 56 102.996 55.616 103.524 55.04C104.1 54.416 104.604 53.528 105.036 52.376C105.468 51.176 105.78 49.592 105.972 47.624C106.02 47.144 106.188 46.928 106.476 46.976C106.764 47.024 106.908 47.096 106.908 47.192C106.908 47.288 106.908 47.432 106.908 47.624C106.908 48.152 106.812 49.016 106.62 50.216C106.428 51.368 106.116 52.568 105.684 53.816C105.3 55.016 104.772 56.12 104.1 57.128C103.428 58.088 102.588 58.64 101.58 58.784C100.092 59.024 98.9159 58.832 98.0519 58.208C97.1879 57.536 96.5159 56.288 96.0359 54.464C95.8439 53.408 95.8919 52.232 96.1799 50.936C96.5159 49.64 96.9239 48.32 97.4039 46.976C97.8839 45.632 98.3879 44.312 98.9159 43.016C99.4439 41.72 99.8279 40.544 100.068 39.488C100.308 38.384 100.308 37.472 100.068 36.752C99.8759 35.984 99.3239 35.504 98.4119 35.312C97.7399 35.168 97.1159 35.408 96.5399 36.032C95.9639 36.608 95.4119 37.544 94.8839 38.84C94.4039 40.088 93.9479 41.624 93.5159 43.448C93.1319 45.272 92.7719 47.312 92.4359 49.568C92.4359 50.144 92.3639 50.624 92.2199 51.008C92.1239 51.344 91.9799 51.56 91.7879 51.656C91.6439 51.752 91.4999 51.728 91.3559 51.584C91.2119 51.44 91.1399 51.104 91.1399 50.576ZM124.357 47.696C124.357 49.04 123.757 51.128 122.557 53.96C121.213 57.32 119.845 59 118.453 59C116.773 59 115.717 56.744 115.285 52.232C114.709 56.264 113.557 58.28 111.829 58.28C109.189 58.28 107.869 54.632 107.869 47.336C107.869 44.024 108.157 40.832 108.733 37.76C109.309 34.688 109.933 33.152 110.605 33.152C111.133 33.152 111.397 33.608 111.397 34.52C111.397 34.76 111.085 36.344 110.461 39.272C109.885 42.2 109.597 45.512 109.597 49.208C109.597 53.048 110.413 54.968 112.045 54.968C113.581 54.968 114.637 52.736 115.213 48.272C115.453 46.352 115.693 44.408 115.933 42.44C116.365 39.32 116.893 37.76 117.517 37.76C117.949 37.76 118.165 38 118.165 38.48C118.165 38.576 117.997 39.776 117.661 42.08C117.229 44.768 117.013 47.432 117.013 50.072C117.013 54.488 117.589 56.696 118.741 56.696C119.557 56.696 120.493 55.472 121.549 53.024C122.509 50.864 123.037 49.16 123.133 47.912C123.181 47.384 123.349 47.12 123.637 47.12C124.117 47.12 124.357 47.312 124.357 47.696ZM137.611 49.496C137.611 51.56 136.699 53.672 134.875 55.832C133.099 57.992 131.179 59.072 129.115 59.072C126.811 59.072 125.011 58.304 123.715 56.768C122.515 55.424 121.915 53.72 121.915 51.656C121.915 49.976 122.419 48.416 123.427 46.976C124.483 45.536 125.851 44.552 127.531 44.024C126.811 43.352 126.115 42.416 125.443 41.216C124.291 39.152 123.715 37.04 123.715 34.88C123.715 33.584 124.051 32.576 124.723 31.856C125.443 31.088 126.331 30.704 127.387 30.704C128.683 30.704 129.811 31.304 130.771 32.504C131.587 33.512 131.995 34.424 131.995 35.24C131.995 35.768 131.755 36.032 131.275 36.032C131.227 36.032 130.987 35.504 130.555 34.448C130.123 33.392 129.355 32.864 128.251 32.864C126.763 32.864 126.019 33.944 126.019 36.104C126.019 37.832 126.451 39.584 127.315 41.36C128.227 43.088 129.235 43.952 130.339 43.952C131.059 43.952 131.419 44.24 131.419 44.816C131.419 45.344 130.891 45.608 129.835 45.608C127.963 45.608 126.451 46.328 125.299 47.768C124.195 49.16 123.643 50.72 123.643 52.448C123.643 55.616 125.107 57.2 128.035 57.2C130.051 57.2 131.899 56.336 133.579 54.608C135.067 53.072 136.003 51.416 136.387 49.64C136.579 48.92 136.843 48.56 137.179 48.56C137.467 48.56 137.611 48.872 137.611 49.496ZM162.991 34.592C162.991 34.64 162.751 36.56 162.271 40.352C161.839 44.096 161.623 46.928 161.623 48.848C161.623 51.152 161.695 53.648 161.839 56.336C161.983 58.976 162.055 61.088 162.055 62.672C162.055 68.576 161.167 73.04 159.391 76.064C157.951 78.656 156.055 79.952 153.703 79.952C151.591 79.952 149.767 79.112 148.231 77.432C146.599 75.56 145.783 73.112 145.783 70.088C145.783 66.968 146.167 65.408 146.935 65.408C147.223 65.408 147.367 65.576 147.367 65.912C147.367 65.816 147.319 66.104 147.223 66.776C147.079 67.496 147.007 68.432 147.007 69.584C147.007 72.224 147.631 74.384 148.879 76.064C150.127 77.744 151.567 78.584 153.199 78.584C155.215 78.584 156.871 77.12 158.167 74.192C159.703 70.64 160.471 65.36 160.471 58.352C160.471 54.992 160.327 52.928 160.039 52.16C159.799 53.36 159.271 54.584 158.455 55.832C157.399 57.464 156.271 58.28 155.071 58.28C152.431 58.28 151.111 55.616 151.111 50.288C151.111 45.872 151.951 41.48 153.631 37.112C155.359 32.744 157.135 30.56 158.959 30.56C159.583 30.56 160.159 30.944 160.687 31.712C160.783 31.376 160.879 31.04 160.975 30.704C161.119 30.32 161.407 30.128 161.839 30.128C162.319 30.128 162.631 30.416 162.775 30.992C162.919 31.568 162.991 32.768 162.991 34.592ZM160.183 35.24C160.087 33.368 159.559 32.432 158.599 32.432C157.447 32.432 156.343 34.016 155.287 37.184C154.135 40.592 153.559 44.432 153.559 48.704C153.559 52.88 154.351 54.968 155.935 54.968C157.231 54.968 158.263 53.576 159.031 50.792C159.799 48.248 160.183 45.08 160.183 41.288C160.183 37.064 160.183 35.048 160.183 35.24ZM182.737 48.272C182.257 50.528 181.753 52.184 181.225 53.24C180.073 55.448 178.345 56.552 176.041 56.552C174.937 56.552 173.881 56.216 172.873 55.544C172.105 55.976 171.313 56.192 170.497 56.192C169.105 56.192 167.953 55.568 167.041 54.32V55.904C166.993 60.272 167.017 63.872 167.113 66.704C167.209 69.824 167.257 71.648 167.257 72.176C167.257 73.28 166.921 73.832 166.249 73.832C165.577 73.832 165.241 73.304 165.241 72.248C165.241 71.96 165.337 70.208 165.529 66.992C165.673 64.016 165.721 60.248 165.673 55.688V34.736C165.673 34.592 165.673 34.4 165.673 34.16C165.673 33.92 165.673 33.752 165.673 33.656C165.673 32.264 166.057 31.568 166.825 31.568C167.593 31.568 167.977 31.952 167.977 32.72C167.977 32.912 167.953 33.2 167.905 33.584C167.857 33.968 167.833 34.232 167.833 34.376C167.833 34.52 167.833 34.712 167.833 34.952C169.033 32.696 170.545 31.568 172.369 31.568C173.809 31.568 175.057 32.6 176.113 34.664C177.265 36.92 177.841 39.752 177.841 43.16C177.841 48.344 176.569 52.16 174.025 54.608C174.601 55.04 175.297 55.256 176.113 55.256C178.657 55.256 180.385 53.288 181.297 49.352C181.537 48.152 181.801 47.552 182.089 47.552C182.617 47.552 182.833 47.792 182.737 48.272ZM175.753 43.664C175.753 41.024 175.345 38.768 174.529 36.896C173.713 34.976 172.633 34.016 171.289 34.016C170.281 34.016 169.393 34.616 168.625 35.816C167.857 37.016 167.473 38.552 167.473 40.424C167.473 46.52 169.249 50.984 172.801 53.816C174.769 51.704 175.753 48.32 175.753 43.664ZM171.649 54.68C169.633 53 168.145 50.528 167.185 47.264C167.185 47.6 167.161 48.776 167.113 50.792C167.785 53.48 169.009 54.824 170.785 54.824C171.073 54.824 171.361 54.776 171.649 54.68ZM192.369 26.312C192.369 27.608 191.961 31.088 191.145 36.752C190.329 42.416 189.921 46.448 189.921 48.848C189.921 51.152 190.041 53.648 190.281 56.336C190.521 58.976 190.641 61.088 190.641 62.672C190.641 72.032 187.641 76.712 181.641 76.712C180.249 76.712 179.553 76.304 179.553 75.488C179.553 75.008 179.745 74.576 180.129 74.192C180.513 73.808 180.945 73.616 181.425 73.616C181.713 73.616 182.025 73.736 182.361 73.976C182.697 74.216 183.009 74.336 183.297 74.336C186.081 74.336 187.857 72.272 188.625 68.144C188.913 66.608 189.057 63.344 189.057 58.352C189.057 54.992 188.913 52.928 188.625 52.16C188.481 53.168 188.121 54.296 187.545 55.544C186.729 57.368 185.865 58.28 184.953 58.28C183.993 58.28 183.177 57.56 182.505 56.12C181.641 54.248 181.209 51.56 181.209 48.056V46.832C181.209 39.824 181.737 36.32 182.793 36.32C183.369 36.32 183.657 37.832 183.657 40.856C183.657 41.816 183.489 43.352 183.153 45.464C182.865 47.576 182.721 48.824 182.721 49.208C182.721 53.048 183.537 54.968 185.169 54.968C186.321 54.968 187.209 53.576 187.833 50.792C188.457 48.296 188.769 45.128 188.769 41.288C188.769 36.584 188.937 32.264 189.273 28.328C189.753 23.24 190.401 20.696 191.217 20.696C191.985 20.696 192.369 22.568 192.369 26.312ZM201.78 49.136C201.444 49.664 201.108 50.216 200.772 50.792C200.484 51.32 200.148 51.896 199.764 52.52C202.596 52.52 204.444 54.032 205.308 57.056C208.044 54.8 209.7 51.944 210.276 48.488C210.42 47.528 210.684 47.048 211.068 47.048C211.356 47.048 211.5 47.408 211.5 48.128C211.5 48.512 211.476 48.776 211.428 48.92C210.612 53.048 208.668 56.264 205.596 58.568C205.644 58.952 205.668 59.336 205.668 59.72C205.716 60.104 205.74 60.488 205.74 60.872C205.74 64.424 205.02 67.52 203.58 70.16C201.9 73.184 199.788 74.696 197.244 74.696C195.18 74.696 194.148 73.496 194.148 71.096C194.148 67.4 197.148 63.248 203.148 58.64C202.62 55.376 201.276 53.744 199.116 53.744C197.724 56.192 196.644 57.416 195.876 57.416C195.396 57.416 195.156 57.128 195.156 56.552C195.156 55.016 196.164 53.696 198.18 52.592L200.556 48.344C201.612 46.28 202.26 44.576 202.5 43.232C202.74 41.84 202.716 40.784 202.428 40.064C202.236 39.584 201.948 39.224 201.564 38.984C201.228 38.696 200.868 38.504 200.484 38.408C200.148 38.264 199.836 38.192 199.548 38.192C199.26 38.192 199.068 38.216 198.972 38.264C198.444 38.504 197.94 39.008 197.46 39.776C196.98 40.496 196.62 41.624 196.38 43.16C195.66 47.672 195.204 50.12 195.012 50.504C194.868 50.936 194.58 51.152 194.148 51.152C193.86 51.152 193.716 51.008 193.716 50.72C193.716 50.576 193.74 50.432 193.788 50.288C194.22 49.232 194.58 47.264 194.868 44.384C195.06 42.848 195.228 41.6 195.372 40.64C195.516 39.632 195.66 38.864 195.804 38.336C196.092 37.376 196.452 36.728 196.884 36.392C197.364 36.056 197.868 35.768 198.396 35.528C198.78 35.384 199.284 35.288 199.908 35.24C200.58 35.192 201.252 35.288 201.924 35.528C202.596 35.72 203.196 36.104 203.724 36.68C204.3 37.256 204.636 38.072 204.732 39.128C204.876 40.184 204.732 41.528 204.3 43.16C203.868 44.792 203.028 46.784 201.78 49.136ZM203.364 61.376C203.364 61.184 203.364 60.992 203.364 60.8C203.364 60.608 203.34 60.416 203.292 60.224C197.964 64.352 195.3 68.024 195.3 71.24C195.3 72.824 195.996 73.616 197.388 73.616C199.02 73.616 200.46 72.272 201.708 69.584C202.812 66.992 203.364 64.256 203.364 61.376ZM214.501 59.072C212.821 58.496 211.549 57.248 210.685 55.328C209.869 53.36 209.341 51.056 209.101 48.416C208.909 45.776 208.981 42.992 209.317 40.064C209.653 37.088 210.157 34.28 210.829 31.64C210.973 31.064 211.213 30.536 211.549 30.056C211.933 29.528 212.269 29.168 212.557 28.976C212.893 28.736 213.157 28.712 213.349 28.904C213.589 29.048 213.637 29.456 213.493 30.128C212.869 33.296 212.269 36.656 211.693 40.208C211.165 43.712 211.045 47.552 211.333 51.728C211.381 52.592 211.549 53.408 211.837 54.176C212.125 54.896 212.437 55.544 212.773 56.12C213.109 56.648 213.445 57.08 213.781 57.416C214.165 57.704 214.501 57.848 214.789 57.848C215.797 58.04 216.637 57.632 217.309 56.624C216.541 56.144 215.869 55.496 215.293 54.68C214.717 53.864 214.237 52.976 213.853 52.016C213.469 51.056 213.181 50.072 212.989 49.064C212.845 48.008 212.821 47.048 212.917 46.184C213.109 44.552 213.709 43.184 214.717 42.08C215.773 40.976 216.925 40.472 218.173 40.568C219.277 40.712 220.093 41.384 220.621 42.584C221.197 43.736 221.509 45.104 221.557 46.688C221.653 48.272 221.533 49.928 221.197 51.656C220.861 53.336 220.381 54.752 219.757 55.904C219.853 56 219.973 56.048 220.117 56.048C220.261 56.048 220.381 56.072 220.477 56.12C221.533 56.216 222.349 55.952 222.925 55.328C223.549 54.656 224.125 53.624 224.653 52.232C224.749 51.752 224.845 51.464 224.941 51.368C225.037 51.272 225.133 51.224 225.229 51.224C225.565 51.224 225.709 51.392 225.661 51.728C225.613 51.968 225.565 52.208 225.517 52.448C225.517 52.64 225.469 52.856 225.373 53.096C224.989 54.392 224.341 55.472 223.429 56.336C222.565 57.2 221.509 57.56 220.261 57.416C219.925 57.416 219.517 57.32 219.037 57.128C218.557 57.896 217.885 58.448 217.021 58.784C216.205 59.072 215.365 59.168 214.501 59.072ZM218.029 55.688C218.461 55.064 218.845 54.032 219.181 52.592C219.565 51.152 219.781 49.688 219.829 48.2C219.925 46.712 219.805 45.416 219.469 44.312C219.181 43.16 218.581 42.536 217.669 42.44C216.853 42.344 216.133 42.68 215.509 43.448C214.885 44.216 214.501 45.224 214.357 46.472C214.261 47.288 214.285 48.152 214.429 49.064C214.573 49.976 214.789 50.864 215.077 51.728C215.413 52.544 215.821 53.312 216.301 54.032C216.781 54.704 217.357 55.256 218.029 55.688ZM237.248 44.168C237.344 43.64 237.584 43.304 237.968 43.16C238.352 43.016 238.712 43.016 239.048 43.16C239.432 43.304 239.72 43.544 239.912 43.88C240.152 44.168 240.176 44.48 239.984 44.816C239.84 45.056 239.624 45.512 239.336 46.184C239.096 46.856 238.856 47.648 238.616 48.56C238.376 49.472 238.16 50.432 237.968 51.44C237.824 52.4 237.752 53.312 237.752 54.176C237.8 54.992 237.968 55.664 238.256 56.192C238.544 56.72 239.024 56.984 239.696 56.984C240.464 56.984 241.4 56.048 242.504 54.176C243.272 52.688 243.8 51.344 244.088 50.144C244.232 49.712 244.424 49.496 244.664 49.496C245.096 49.496 245.312 49.784 245.312 50.36C245.312 50.408 245.288 50.552 245.24 50.792C245.048 51.8 244.4 53.288 243.296 55.256C241.952 57.752 240.656 59 239.408 59C238.352 59 237.56 58.568 237.032 57.704C236.504 56.84 236.144 55.784 235.952 54.536C235.808 53.288 235.784 51.968 235.88 50.576C236.024 49.136 236.216 47.84 236.456 46.688C236.36 46.736 236.168 46.808 235.88 46.904C235.544 48.392 235.136 49.856 234.656 51.296C234.176 52.688 233.624 53.936 233 55.04C232.376 56.144 231.656 57.08 230.84 57.848C230.072 58.568 229.232 58.976 228.32 59.072C227.024 58.88 226.04 58.424 225.368 57.704C224.696 56.936 224.24 56.096 224 55.184C223.808 54.272 223.784 53.384 223.928 52.52C224.072 51.608 224.288 50.912 224.576 50.432C224.816 50.096 225.104 49.856 225.44 49.712C225.824 49.568 226.184 49.52 226.52 49.568C226.856 49.616 227.096 49.76 227.24 50C227.432 50.24 227.456 50.576 227.312 51.008C226.88 52.544 226.736 53.912 226.88 55.112C227.024 56.312 227.624 56.936 228.68 56.984C230.072 56.6 231.248 55.472 232.208 53.6C233.168 51.68 233.936 49.52 234.512 47.12C234.272 47.168 234.056 47.192 233.864 47.192C233.672 47.144 233.48 47.096 233.288 47.048C231.704 46.712 230.384 46.112 229.328 45.248C228.272 44.336 227.48 43.304 226.952 42.152C226.424 40.952 226.136 39.728 226.088 38.48C226.088 37.184 226.304 36.008 226.736 34.952C227.216 33.896 227.936 33.032 228.896 32.36C229.856 31.64 231.056 31.28 232.496 31.28C232.976 31.28 233.48 31.328 234.008 31.424C234.584 31.52 235.112 31.736 235.592 32.072C236.072 32.408 236.456 32.864 236.744 33.44C237.08 34.016 237.272 34.808 237.32 35.816C237.368 36.776 237.296 38.144 237.104 39.92C236.912 41.648 236.624 43.52 236.24 45.536C236.528 45.344 236.768 45.128 236.96 44.888C237.008 44.744 237.056 44.624 237.104 44.528C237.152 44.384 237.2 44.264 237.248 44.168ZM235.88 35.744C235.784 34.64 235.448 33.896 234.872 33.512C234.344 33.08 233.864 32.816 233.432 32.72C232.52 32.576 231.704 32.744 230.984 33.224C230.312 33.704 229.76 34.376 229.328 35.24C228.944 36.056 228.704 36.992 228.608 38.048C228.512 39.104 228.608 40.136 228.896 41.144C229.184 42.152 229.688 43.088 230.408 43.952C231.128 44.816 232.088 45.44 233.288 45.824C233.72 45.968 234.2 46.016 234.728 45.968C235.16 44 235.472 42.104 235.664 40.28C235.856 38.408 235.928 36.896 235.88 35.744ZM254.001 5.144C254.001 4.616 253.737 7.568 253.209 14C252.921 18.128 252.393 30.056 251.625 49.784C251.577 51.032 251.217 51.656 250.545 51.656C249.873 51.656 249.537 51.272 249.537 50.504C249.537 48.104 249.681 44.912 249.969 40.928C250.305 35.984 250.497 32.768 250.545 31.28C250.785 25.568 250.905 20.552 250.905 16.232C250.905 15.128 250.857 13.448 250.761 11.192C250.665 8.888 250.617 7.16 250.617 6.008C250.617 4.76 250.641 4.064 250.689 3.92C250.833 3.056 251.265 2.624 251.985 2.624C253.329 2.624 254.001 3.464 254.001 5.144ZM252.993 57.344C252.993 58.784 252.225 59.504 250.689 59.504C249.153 59.504 248.385 58.784 248.385 57.344C248.385 55.904 249.153 55.184 250.689 55.184C252.225 55.184 252.993 55.904 252.993 57.344Z" fill="url(#paint0_linear_53_4)"/>
<defs>
<linearGradient id="paint0_linear_53_4" x1="128" y1="-22" x2="128" y2="82" gradientUnits="userSpaceOnUse">
<stop stop-color="#CEB076"/>
<stop offset="1" stop-color="#D6BD84"/>
</linearGradient>
</defs>
</svg>
